<svg width="140" height="44" viewBox="0 0 140 44" fill="none" xmlns="http://www.w3.org/2000/svg">
<rect x="6.10352e-05" width="139.029" height="44.0001" rx="8" fill="#2E3A59"/>
<path d="M29.104 21.2584C29.1164 20.3256 29.3727 19.411 29.8489 18.5997C30.3252 17.7884 31.006 17.1067 31.8279 16.6182C31.3057 15.8971 30.6169 15.3038 29.8161 14.8852C29.0152 14.4666 28.1245 14.2343 27.2146 14.2068C25.2736 14.0098 23.3919 15.3298 22.4028 15.3298C21.3945 15.3298 19.8717 14.2263 18.2318 14.259C17.1711 14.2921 16.1373 14.5903 15.2312 15.1246C14.3252 15.6589 13.5777 16.4109 13.0616 17.3076C10.8261 21.0497 12.4936 26.5493 14.635 29.5742C15.7064 31.0554 16.9585 32.7099 18.5969 32.6512C20.2002 32.5869 20.799 31.6627 22.7343 31.6627C24.6516 31.6627 25.2134 32.6512 26.8851 32.6139C28.6054 32.5869 29.6894 31.1261 30.7232 29.6309C31.493 28.5755 32.0853 27.4091 32.4783 26.1748C31.4788 25.7661 30.6258 25.0819 30.0258 24.2076C29.4257 23.3334 29.1052 22.3077 29.104 21.2584Z" fill="white"/>
<path d="M25.9466 12.2174C26.8846 11.1287 27.3467 9.72928 27.2348 8.31641C25.8017 8.46194 24.4779 9.12417 23.5272 10.1711C23.0624 10.6826 22.7064 11.2777 22.4795 11.9222C22.2527 12.5668 22.1595 13.2483 22.2052 13.9278C22.922 13.9349 23.6312 13.7847 24.2792 13.4884C24.9273 13.1922 25.4974 12.7576 25.9466 12.2174Z" fill="white"/>
<path d="M49.3707 28.9014H43.8994L42.5855 32.6525H40.2681L45.4504 18.7744H47.8581L53.0404 32.6525H50.6835L49.3707 28.9014ZM44.4661 27.1705H48.803L46.665 21.0827H46.6052L44.4661 27.1705Z" fill="white"/>
<path d="M64.2323 27.5942C64.2323 30.7384 62.4917 32.7586 59.865 32.7586C59.1997 32.7922 58.5379 32.644 57.9556 32.331C57.3733 32.0179 56.8939 31.5526 56.5724 30.9883H56.5227V36H54.3746V22.5345H56.4538V24.2174H56.4933C56.8297 23.6559 57.3171 23.193 57.9039 22.878C58.4906 22.563 59.1548 22.4077 59.8255 22.4286C62.4815 22.4286 64.2323 24.4586 64.2323 27.5942ZM62.0244 27.5942C62.0244 25.5456 60.9295 24.1989 59.2589 24.1989C57.6176 24.1989 56.5137 25.574 56.5137 27.5942C56.5137 29.6329 57.6176 30.9982 59.2589 30.9982C60.9295 30.9982 62.0244 29.6612 62.0244 27.5942Z" fill="white"/>
<path d="M75.7508 27.5941C75.7508 30.7384 74.0102 32.7586 71.3835 32.7586C70.7181 32.7922 70.0564 32.644 69.474 32.3309C68.8917 32.0179 68.4124 31.5526 68.0908 30.9883H68.0411V36H65.893V22.5345H67.9723V24.2174H68.0118C68.3481 23.6559 68.8355 23.193 69.4223 22.878C70.0091 22.563 70.6732 22.4077 71.344 22.4286C74 22.4286 75.7508 24.4586 75.7508 27.5941ZM73.5429 27.5941C73.5429 25.5456 72.4479 24.1988 70.7773 24.1988C69.1361 24.1988 68.0321 25.574 68.0321 27.5941C68.0321 29.6328 69.1361 30.9982 70.7773 30.9982C72.4479 30.9982 73.5429 29.6612 73.5429 27.5941H73.5429Z" fill="white"/>
<path d="M83.363 28.7857C83.5222 30.1619 84.905 31.0655 86.7946 31.0655C88.6051 31.0655 89.9078 30.1619 89.9078 28.9209C89.9078 27.8437 89.1221 27.1988 87.2619 26.7567L85.4016 26.3234C82.7659 25.7079 81.5423 24.5161 81.5423 22.5822C81.5423 20.1877 83.7006 18.543 86.7652 18.543C89.7982 18.543 91.8775 20.1877 91.9475 22.5822H89.7791C89.6492 21.1972 88.4651 20.3612 86.7347 20.3612C85.0043 20.3612 83.8202 21.207 83.8202 22.4381C83.8202 23.4193 84.5765 23.9966 86.4265 24.4386L88.008 24.814C90.953 25.4874 92.1766 26.6312 92.1766 28.6611C92.1766 31.2575 90.0375 32.8837 86.6354 32.8837C83.4522 32.8837 81.303 31.2957 81.1641 28.7856L83.363 28.7857Z" fill="white"/>
<path d="M96.8127 20.1396V22.5341H98.8028V24.1789H96.8127V29.7569C96.8127 30.6235 97.2112 31.0273 98.086 31.0273C98.3223 31.0233 98.5581 31.0073 98.7926 30.9792V32.6141C98.3993 32.6852 97.9995 32.7174 97.5995 32.7102C95.4808 32.7102 94.6545 31.9407 94.6545 29.9784V24.1789H93.1329V22.5341H94.6544V20.1396H96.8127Z" fill="white"/>
<path d="M99.9556 27.5937C99.9556 24.4102 101.895 22.4097 104.919 22.4097C107.953 22.4097 109.883 24.4101 109.883 27.5937C109.883 30.786 107.963 32.7778 104.919 32.7778C101.876 32.7778 99.9556 30.786 99.9556 27.5937ZM107.695 27.5937C107.695 25.4099 106.659 24.121 104.919 24.121C103.178 24.121 102.144 25.4197 102.144 27.5937C102.144 29.7863 103.178 31.0654 104.919 31.0654C106.659 31.0654 107.695 29.7863 107.695 27.5937H107.695Z" fill="white"/>
<path d="M111.653 22.5344H113.702V24.2566H113.752C113.89 23.7187 114.216 23.2434 114.675 22.9105C115.133 22.5775 115.696 22.4074 116.269 22.4285C116.517 22.4277 116.763 22.4537 117.005 22.506V24.4487C116.693 24.3563 116.366 24.3139 116.04 24.3232C115.728 24.3109 115.417 24.3641 115.128 24.4791C114.839 24.5941 114.579 24.7681 114.367 24.9893C114.154 25.2105 113.994 25.4735 113.896 25.7603C113.798 26.0472 113.766 26.351 113.801 26.6511V32.6526H111.653L111.653 22.5344Z" fill="white"/>
<path d="M126.909 29.6805C126.62 31.5173 124.77 32.7778 122.403 32.7778C119.359 32.7778 117.469 30.8057 117.469 27.6418C117.469 24.468 119.369 22.4097 122.313 22.4097C125.208 22.4097 127.029 24.3327 127.029 27.4006V28.1121H119.638V28.2376C119.604 28.61 119.652 28.9852 119.779 29.3381C119.907 29.6911 120.11 30.0138 120.376 30.2849C120.643 30.556 120.965 30.7692 121.324 30.9103C121.682 31.0515 122.067 31.1174 122.453 31.1036C122.961 31.1496 123.47 31.0359 123.905 30.7795C124.341 30.5231 124.679 30.1376 124.87 29.6805L126.909 29.6805ZM119.648 26.6606H124.88C124.899 26.3258 124.847 25.9907 124.726 25.6764C124.605 25.3622 124.418 25.0755 124.177 24.8343C123.936 24.5932 123.646 24.4028 123.325 24.2752C123.004 24.1475 122.66 24.0854 122.313 24.0926C121.963 24.0906 121.616 24.1555 121.293 24.2838C120.969 24.412 120.675 24.601 120.427 24.8397C120.179 25.0785 119.983 25.3623 119.849 25.6748C119.715 25.9874 119.647 26.3224 119.648 26.6606V26.6606Z" fill="white"/>
<path d="M44.1967 8.32886C44.6471 8.29761 45.099 8.36339 45.5198 8.52145C45.9407 8.67951 46.32 8.92592 46.6305 9.24289C46.9409 9.55986 47.1748 9.9395 47.3151 10.3544C47.4554 10.7693 47.4988 11.2092 47.442 11.6423C47.442 13.7727 46.2511 14.9973 44.1967 14.9973H41.7055V8.32886H44.1967ZM42.7767 14.0542H44.0771C44.3989 14.0728 44.7209 14.0218 45.0197 13.9049C45.3186 13.788 45.5867 13.6081 45.8046 13.3783C46.0224 13.1486 46.1846 12.8748 46.2792 12.5768C46.3738 12.2789 46.3986 11.9642 46.3516 11.6559C46.3951 11.3487 46.3679 11.0361 46.2719 10.7403C46.1758 10.4445 46.0132 10.1729 45.7958 9.94502C45.5785 9.71711 45.3116 9.53852 45.0145 9.42202C44.7173 9.30553 44.3972 9.25403 44.0771 9.27121H42.7767V14.0542Z" fill="white"/>
<path d="M48.6521 12.4783C48.6194 12.1476 48.6585 11.8139 48.767 11.4987C48.8755 11.1834 49.0509 10.8936 49.282 10.6477C49.5131 10.4019 49.7948 10.2055 50.109 10.071C50.4233 9.93662 50.7631 9.86719 51.1067 9.86719C51.4503 9.86719 51.7901 9.93662 52.1043 10.071C52.4186 10.2055 52.7003 10.4019 52.9314 10.6477C53.1625 10.8936 53.3379 11.1834 53.4464 11.4987C53.5548 11.8139 53.594 12.1476 53.5612 12.4783C53.5946 12.8093 53.5559 13.1435 53.4477 13.4592C53.3396 13.7749 53.1642 14.0653 52.9331 14.3116C52.7019 14.558 52.42 14.7548 52.1055 14.8895C51.7909 15.0242 51.4507 15.0938 51.1067 15.0938C50.7627 15.0938 50.4225 15.0242 50.1079 14.8895C49.7934 14.7548 49.5115 14.558 49.2803 14.3116C49.0491 14.0653 48.8738 13.7749 48.7656 13.4592C48.6574 13.1435 48.6188 12.8093 48.6521 12.4783ZM52.5047 12.4783C52.5047 11.3874 51.9978 10.7495 51.1084 10.7495C50.2155 10.7495 49.7132 11.3874 49.7132 12.4783C49.7132 13.5779 50.2155 14.2108 51.1084 14.2108C51.9979 14.2108 52.5047 13.5735 52.5047 12.4783H52.5047Z" fill="white"/>
<path d="M60.0867 14.9967H59.0211L57.9454 11.2904H57.8641L56.7929 14.9967H55.7375L54.3028 9.96436H55.3447L56.2771 13.8043H56.3538L57.4239 9.96436H58.4093L59.4794 13.8043H59.5607L60.4886 9.96436H61.5158L60.0867 14.9967Z" fill="white"/>
<path d="M62.7222 9.9644H63.711V10.7638H63.7878C63.918 10.4767 64.1376 10.236 64.4161 10.0753C64.6945 9.91458 65.0178 9.84186 65.341 9.86726C65.5943 9.84885 65.8486 9.88577 66.0851 9.97528C66.3216 10.0648 66.5342 10.2046 66.7072 10.3844C66.8802 10.5641 67.0092 10.7792 67.0846 11.0137C67.1599 11.2482 67.1797 11.4961 67.1426 11.739V14.9967H66.1154V11.9884C66.1154 11.1797 65.7519 10.7775 64.9922 10.7775C64.8203 10.7697 64.6486 10.798 64.4891 10.8604C64.3295 10.9228 64.1857 11.0178 64.0677 11.139C63.9497 11.2601 63.8601 11.4045 63.8052 11.5622C63.7502 11.7199 63.7312 11.8873 63.7494 12.0528V14.9968H62.7222L62.7222 9.9644Z" fill="white"/>
<path d="M68.7798 8H69.807V14.9969H68.7798V8Z" fill="white"/>
<path d="M71.2347 12.4784C71.202 12.1476 71.2412 11.8139 71.3497 11.4987C71.4582 11.1834 71.6336 10.8936 71.8647 10.6477C72.0959 10.4019 72.3776 10.2055 72.6918 10.071C73.0061 9.93662 73.3459 9.86719 73.6895 9.86719C74.0332 9.86719 74.373 9.93662 74.6873 10.071C75.0015 10.2055 75.2832 10.4019 75.5144 10.6477C75.7455 10.8936 75.9209 11.1834 76.0294 11.4987C76.1379 11.8139 76.1771 12.1476 76.1444 12.4784C76.1777 12.8094 76.139 13.1436 76.0308 13.4593C75.9226 13.7751 75.7472 14.0654 75.516 14.3117C75.2848 14.5581 75.0029 14.7549 74.6883 14.8896C74.3738 15.0243 74.0336 15.0939 73.6895 15.0939C73.3455 15.0939 73.0053 15.0243 72.6907 14.8896C72.3762 14.7549 72.0943 14.5581 71.8631 14.3117C71.6319 14.0654 71.4565 13.7751 71.3483 13.4593C71.2401 13.1436 71.2014 12.8094 71.2347 12.4784ZM75.0873 12.4784C75.0873 11.3875 74.5804 10.7496 73.691 10.7496C72.7981 10.7496 72.2958 11.3875 72.2958 12.4784C72.2958 13.5779 72.7981 14.2109 73.691 14.2109C74.5804 14.2109 75.0873 13.5736 75.0873 12.4784H75.0873Z" fill="white"/>
<path d="M77.2256 13.5735C77.2256 12.6677 77.9232 12.1454 79.1614 12.0712L80.5713 11.9927V11.5583C80.5713 11.0268 80.2078 10.7266 79.5057 10.7266C78.9323 10.7266 78.535 10.9302 78.421 11.286H77.4265C77.5315 10.4216 78.3724 9.86719 79.5531 9.86719C80.858 9.86719 81.594 10.4953 81.594 11.5583V14.9967H80.6052V14.2895H80.5239C80.3589 14.5432 80.1273 14.75 79.8526 14.8888C79.578 15.0276 79.2701 15.0934 78.9605 15.0796C78.742 15.1016 78.5212 15.079 78.3122 15.0134C78.1033 14.9478 77.9109 14.8406 77.7474 14.6987C77.584 14.5568 77.4531 14.3834 77.3632 14.1896C77.2733 13.9958 77.2264 13.7859 77.2256 13.5735ZM80.5713 13.1435V12.7228L79.3003 12.8014C78.5835 12.8477 78.2584 13.0835 78.2584 13.5271C78.2584 13.98 78.6648 14.2436 79.2236 14.2436C79.3873 14.2596 79.5527 14.2437 79.7099 14.1966C79.8671 14.1496 80.0129 14.0724 80.1386 13.9698C80.2644 13.8672 80.3675 13.7411 80.4418 13.5992C80.5161 13.4572 80.5602 13.3023 80.5713 13.1435Z" fill="white"/>
<path d="M82.9443 12.4785C82.9443 10.8884 83.7898 9.88102 85.1048 9.88102C85.4301 9.86652 85.7529 9.94185 86.0356 10.0982C86.3182 10.2545 86.549 10.4854 86.7009 10.7639H86.7777V8H87.8049V14.9969H86.8206V14.2018H86.7393C86.5756 14.4784 86.3368 14.7064 86.0487 14.8612C85.7606 15.0159 85.4342 15.0915 85.1048 15.0798C83.7808 15.0798 82.9443 14.0725 82.9443 12.4785ZM84.0054 12.4785C84.0054 13.5459 84.5258 14.1882 85.3961 14.1882C86.2619 14.1882 86.7969 13.5366 86.7969 12.4829C86.7969 11.4341 86.2562 10.7732 85.3961 10.7732C84.5314 10.7732 84.0054 11.4199 84.0054 12.4785H84.0054Z" fill="white"/>
<path d="M92.0546 12.4783C92.0218 12.1476 92.061 11.8139 92.1694 11.4987C92.2779 11.1834 92.4533 10.8936 92.6844 10.6477C92.9155 10.4019 93.1972 10.2055 93.5115 10.071C93.8257 9.93662 94.1655 9.86719 94.5091 9.86719C94.8527 9.86719 95.1925 9.93662 95.5068 10.071C95.821 10.2055 96.1027 10.4019 96.3338 10.6477C96.5649 10.8936 96.7403 11.1834 96.8488 11.4987C96.9573 11.8139 96.9964 12.1476 96.9637 12.4783C96.997 12.8093 96.9584 13.1435 96.8502 13.4592C96.742 13.7749 96.5667 14.0653 96.3355 14.3116C96.1043 14.558 95.8224 14.7548 95.5079 14.8895C95.1933 15.0242 94.8531 15.0938 94.5091 15.0938C94.1651 15.0938 93.8249 15.0242 93.5103 14.8895C93.1958 14.7548 92.9139 14.558 92.6827 14.3116C92.4516 14.0653 92.2762 13.7749 92.1681 13.4592C92.0599 13.1435 92.0212 12.8093 92.0546 12.4783ZM95.9071 12.4783C95.9071 11.3874 95.4003 10.7495 94.5108 10.7495C93.6179 10.7495 93.1157 11.3874 93.1157 12.4783C93.1157 13.5779 93.618 14.2108 94.5108 14.2108C95.4003 14.2108 95.9071 13.5735 95.9071 12.4783Z" fill="white"/>
<path d="M98.3422 9.9644H99.3311V10.7638H99.4078C99.538 10.4767 99.7577 10.236 100.036 10.0753C100.314 9.91458 100.638 9.84186 100.961 9.86726C101.214 9.84885 101.469 9.88577 101.705 9.97528C101.942 10.0648 102.154 10.2046 102.327 10.3844C102.5 10.5641 102.629 10.7792 102.705 11.0137C102.78 11.2482 102.8 11.4961 102.763 11.739V14.9967H101.735V11.9884C101.735 11.1797 101.372 10.7775 100.612 10.7775C100.44 10.7697 100.269 10.798 100.109 10.8604C99.9495 10.9228 99.8058 11.0178 99.6877 11.139C99.5697 11.2601 99.4801 11.4045 99.4252 11.5622C99.3702 11.7199 99.3512 11.8873 99.3694 12.0528V14.9968H98.3422V9.9644Z" fill="white"/>
<path d="M108.566 8.71143V9.98725H109.694V10.8238H108.566V13.4115C108.566 13.9386 108.791 14.1694 109.302 14.1694C109.433 14.169 109.564 14.1614 109.694 14.1465V14.9738C109.509 15.0057 109.322 15.0227 109.135 15.0245C107.993 15.0245 107.538 14.636 107.538 13.6658V10.8238H106.711V9.98721H107.538V8.71143H108.566Z" fill="white"/>
<path d="M111.098 8H112.116V10.7732H112.197C112.334 10.4834 112.559 10.2413 112.843 10.08C113.127 9.9187 113.456 9.84597 113.784 9.87173C114.036 9.85847 114.288 9.89914 114.522 9.99083C114.756 10.0825 114.966 10.223 115.137 10.4022C115.308 10.5813 115.436 10.7949 115.512 11.0275C115.588 11.2601 115.61 11.506 115.577 11.7478V14.9969H114.548V11.9928C114.548 11.189 114.161 10.7819 113.435 10.7819C113.259 10.7679 113.081 10.7914 112.915 10.8507C112.749 10.91 112.598 11.0037 112.473 11.1252C112.348 11.2467 112.253 11.3931 112.192 11.5542C112.132 11.7153 112.109 11.8872 112.125 12.0578V14.9968H111.098L111.098 8Z" fill="white"/>
<path d="M121.566 13.638C121.427 14.0979 121.124 14.4958 120.712 14.7619C120.3 15.0281 119.804 15.1456 119.311 15.0939C118.968 15.1026 118.627 15.0391 118.312 14.9078C117.997 14.7765 117.715 14.5804 117.487 14.3333C117.258 14.0861 117.088 13.7938 116.987 13.4766C116.887 13.1594 116.86 12.825 116.906 12.4964C116.861 12.1669 116.889 11.8317 116.989 11.5135C117.089 11.1954 117.258 10.9017 117.486 10.6524C117.713 10.4031 117.994 10.204 118.308 10.0685C118.622 9.93307 118.962 9.86444 119.306 9.86727C120.754 9.86727 121.628 10.8239 121.628 12.4042V12.7507H117.953V12.8064C117.937 12.991 117.961 13.1769 118.023 13.3521C118.086 13.5273 118.186 13.6879 118.316 13.8236C118.447 13.9594 118.605 14.0672 118.781 14.1403C118.957 14.2134 119.147 14.2501 119.339 14.248C119.585 14.2766 119.834 14.2338 120.054 14.1252C120.275 14.0165 120.457 13.8469 120.577 13.638L121.566 13.638ZM117.953 12.0162H120.582C120.595 11.8473 120.571 11.6777 120.512 11.5182C120.453 11.3587 120.36 11.2128 120.24 11.0901C120.119 10.9673 119.973 10.8703 119.811 10.8053C119.65 10.7403 119.476 10.7087 119.301 10.7126C119.123 10.7104 118.947 10.7426 118.782 10.8074C118.617 10.8722 118.468 10.9681 118.342 11.0896C118.217 11.2111 118.118 11.3557 118.051 11.5148C117.984 11.674 117.951 11.8444 117.953 12.0162H117.953Z" fill="white"/>
</svg>
