<svg width="133" height="44" viewBox="0 0 133 44" fill="none" xmlns="http://www.w3.org/2000/svg">
<rect x="0.0290451" width="132.879" height="44.0001" rx="8" fill="#2E3A59"/>
<path d="M47.226 11.4678C47.226 12.3322 46.991 13.0217 46.5211 13.5259C45.9948 14.133 45.2993 14.4418 44.4535 14.4418C43.6358 14.4418 42.9498 14.133 42.3765 13.5156C41.8032 12.8982 41.5212 12.1264 41.5212 11.2209C41.5212 10.305 41.8032 9.54355 42.3765 8.92613C42.9498 8.30871 43.6358 8 44.4535 8C44.8576 8 45.2429 8.08232 45.6095 8.25726C45.976 8.43219 46.2673 8.65858 46.4929 8.94671L45.9948 9.4921C45.6189 9.00845 45.1114 8.76149 44.4535 8.76149C43.8614 8.76149 43.3445 8.98787 42.9122 9.45094C42.4799 9.90372 42.2637 10.5006 42.2637 11.2312C42.2637 11.9618 42.4799 12.5586 42.9122 13.0114C43.3445 13.4642 43.8614 13.7009 44.4535 13.7009C45.0832 13.7009 45.6095 13.4745 46.0324 13.0114C46.3049 12.713 46.4647 12.2911 46.5023 11.756H44.4535V11.0151H47.1884C47.2072 11.1694 47.226 11.3238 47.226 11.4678Z" fill="white" stroke="white" stroke-width="0.2" stroke-miterlimit="10"/>
<path d="M51.5586 8.89528H48.9928V10.8504H51.3048V11.5913H48.9928V13.5465H51.5586V14.308H48.2692V8.13379H51.5586V8.89528Z" fill="white" stroke="white" stroke-width="0.2" stroke-miterlimit="10"/>
<path d="M54.6129 14.308H53.8892V8.89528H52.3103V8.13379H56.1824V8.89528H54.6035V14.308H54.6129Z" fill="white" stroke="white" stroke-width="0.2" stroke-miterlimit="10"/>
<path d="M58.9925 14.308V8.13379H59.7162V14.308H58.9925Z" fill="white" stroke="white" stroke-width="0.2" stroke-miterlimit="10"/>
<path d="M62.9303 14.308H62.2067V8.89528H60.6278V8.13379H64.4998V8.89528H62.9209V14.308H62.9303Z" fill="white" stroke="white" stroke-width="0.2" stroke-miterlimit="10"/>
<path d="M71.84 13.5053C71.2856 14.133 70.5995 14.4418 69.7724 14.4418C68.9454 14.4418 68.2593 14.133 67.7048 13.5053C67.1503 12.8776 66.8778 12.1161 66.8778 11.2209C66.8778 10.3256 67.1503 9.55384 67.7048 8.93642C68.2593 8.30871 68.9454 8 69.7724 8C70.5901 8 71.2762 8.30871 71.84 8.93642C72.3945 9.56413 72.6765 10.3256 72.6765 11.2209C72.6671 12.1264 72.3945 12.8879 71.84 13.5053ZM68.2405 12.9908C68.654 13.4539 69.1709 13.6803 69.7724 13.6803C70.3739 13.6803 70.8908 13.4539 71.3043 12.9908C71.7179 12.5278 71.934 11.9412 71.934 11.2209C71.934 10.5006 71.7273 9.91401 71.3043 9.45094C70.8908 8.98787 70.3739 8.76149 69.7724 8.76149C69.1709 8.76149 68.654 8.98787 68.2405 9.45094C67.827 9.91401 67.6108 10.5006 67.6108 11.2209C67.6108 11.9412 67.827 12.5278 68.2405 12.9908Z" fill="white" stroke="white" stroke-width="0.2" stroke-miterlimit="10"/>
<path d="M73.6912 14.308V8.13379H74.5747L77.319 12.9394H77.3472L77.319 11.7457V8.13379H78.0426V14.308H77.2908L74.4243 9.27602H74.3961L74.4243 10.4697V14.308H73.6912Z" fill="white" stroke="white" stroke-width="0.2" stroke-miterlimit="10"/>
<path d="M66.699 23.3121C64.4904 23.3121 62.6859 25.154 62.6859 27.6855C62.6859 30.2066 64.4904 32.0589 66.699 32.0589C68.9076 32.0589 70.712 30.2066 70.712 27.6855C70.712 25.154 68.9076 23.3121 66.699 23.3121ZM66.699 30.3404C65.4866 30.3404 64.4434 29.2496 64.4434 27.6855C64.4434 26.111 65.4866 25.0305 66.699 25.0305C67.9114 25.0305 68.9546 26.111 68.9546 27.6855C68.9546 29.2496 67.902 30.3404 66.699 30.3404ZM57.9398 23.3121C55.7312 23.3121 53.9268 25.154 53.9268 27.6855C53.9268 30.2066 55.7312 32.0589 57.9398 32.0589C60.1484 32.0589 61.9529 30.2066 61.9529 27.6855C61.9529 25.154 60.1484 23.3121 57.9398 23.3121ZM57.9398 30.3404C56.7274 30.3404 55.6842 29.2496 55.6842 27.6855C55.6842 26.111 56.7274 25.0305 57.9398 25.0305C59.1522 25.0305 60.1954 26.111 60.1954 27.6855C60.1954 29.2496 59.1522 30.3404 57.9398 30.3404ZM47.5266 24.6601V26.5124H51.5866C51.4644 27.5517 51.1449 28.3235 50.6656 28.8483C50.0735 29.4966 49.1525 30.2066 47.536 30.2066C45.036 30.2066 43.0812 28.0045 43.0812 25.2672C43.0812 22.53 45.036 20.3279 47.536 20.3279C48.8799 20.3279 49.8667 20.9041 50.5904 21.6553L51.784 20.3484C50.7689 19.2885 49.425 18.4756 47.5266 18.4756C44.1056 18.4756 41.2297 21.5215 41.2297 25.2775C41.2297 29.0232 44.1056 32.0794 47.5266 32.0794C49.378 32.0794 50.7689 31.4209 51.8591 30.1757C52.9775 28.9512 53.3253 27.2224 53.3253 25.8332C53.3253 25.401 53.2971 24.9997 53.2313 24.6704H47.5266V24.6601ZM90.11 26.1007C89.7811 25.1232 88.7661 23.3121 86.6891 23.3121C84.6308 23.3121 82.9204 25.082 82.9204 27.6855C82.9204 30.1346 84.612 32.0589 86.8864 32.0589C88.7191 32.0589 89.7811 30.8343 90.2134 30.1243L88.8506 29.1261C88.3995 29.8567 87.7792 30.3404 86.8864 30.3404C85.9936 30.3404 85.3545 29.8876 84.9504 29.0129L90.298 26.5947L90.11 26.1007ZM84.659 27.562C84.612 25.8744 85.8526 25.01 86.7454 25.01C87.4409 25.01 88.033 25.3907 88.2304 25.9361L84.659 27.562ZM80.317 31.8016H82.0745V18.9387H80.317V31.8016ZM77.4412 24.2896H77.3754C76.9807 23.7751 76.2288 23.3121 75.2702 23.3121C73.2684 23.3121 71.4357 25.2364 71.4357 27.706C71.4357 30.1551 73.2684 32.0691 75.2702 32.0691C76.2194 32.0691 76.9807 31.6061 77.3754 31.071H77.4318V31.6987C77.4318 33.376 76.6141 34.2713 75.2984 34.2713C74.227 34.2713 73.5597 33.4275 73.2872 32.7174L71.7552 33.4172C72.1969 34.58 73.3623 36.0001 75.2984 36.0001C77.3566 36.0001 79.0953 34.6726 79.0953 31.4414V23.5796H77.4318V24.2896H77.4412ZM75.4205 30.3404C74.2082 30.3404 73.1932 29.229 73.1932 27.706C73.1932 26.1625 74.2082 25.0408 75.4205 25.0408C76.6141 25.0408 77.554 26.1728 77.554 27.706C77.5634 29.229 76.6235 30.3404 75.4205 30.3404ZM98.3429 18.9387H94.1419V31.8016H95.8993V26.924H98.3523C100.298 26.924 102.206 25.3804 102.206 22.9313C102.206 20.4822 100.279 18.9387 98.3429 18.9387ZM98.3805 25.1334H95.8899V20.7189H98.3805C99.6962 20.7189 100.439 21.9126 100.439 22.921C100.439 23.9295 99.6962 25.1334 98.3805 25.1334ZM109.226 23.2915C107.957 23.2915 106.642 23.9089 106.096 25.2569L107.657 25.967C107.985 25.2569 108.606 25.0203 109.254 25.0203C110.156 25.0203 111.087 25.6171 111.096 26.677V26.8108C110.777 26.6153 110.1 26.3168 109.264 26.3168C107.581 26.3168 105.88 27.3253 105.88 29.2084C105.88 30.9269 107.252 32.0383 108.794 32.0383C109.969 32.0383 110.626 31.462 111.031 30.7828H111.087V31.781H112.779V26.8519C112.788 24.5675 111.228 23.2915 109.226 23.2915ZM109.01 30.3404C108.437 30.3404 107.638 30.0214 107.638 29.2496C107.638 28.2617 108.634 27.881 109.499 27.881C110.269 27.881 110.636 28.0662 111.096 28.3132C110.965 29.4966 110.025 30.3404 109.01 30.3404ZM118.953 23.5693L116.942 29.1467H116.886L114.799 23.5693H112.91L116.04 31.3694L114.254 35.7016H116.087L120.908 23.5693H118.953ZM103.164 31.8016H104.922V18.9387H103.164V31.8016Z" fill="white"/>
<path d="M12.4706 8.68922C12.1981 9.00822 12.0383 9.50216 12.0383 10.1299V32.8921C12.0383 33.5301 12.1981 34.0241 12.4706 34.3328L12.5364 34.4048L24.1809 21.6654V21.511V21.3566L12.5364 8.61719L12.4706 8.68922Z" fill="url(#paint0_linear_1_539)"/>
<path d="M28.0624 25.9155L24.1809 21.6656V21.5112V21.3569L28.0624 17.1069L28.147 17.1584L32.7427 20.0191C34.0585 20.832 34.0585 22.1698 32.7427 22.993L28.147 25.8537L28.0624 25.9155Z" fill="url(#paint1_linear_1_539)"/>
<path d="M28.1472 25.8538L24.1812 21.5112L12.471 34.333C12.9033 34.8372 13.6175 34.899 14.4258 34.3948L28.1472 25.8538Z" fill="url(#paint2_linear_1_539)"/>
<path d="M28.1473 17.1685L14.4165 8.62752C13.6082 8.12329 12.894 8.18504 12.4617 8.68926L24.1813 21.511L28.1473 17.1685Z" fill="url(#paint3_linear_1_539)"/>
<path opacity="0.2" d="M28.0631 25.7612L14.4168 34.2508C13.6556 34.7241 12.9695 34.6933 12.5372 34.2611L12.4714 34.3331L12.5372 34.4051C12.9789 34.8373 13.6556 34.8682 14.4168 34.3948L28.1477 25.8538L28.0631 25.7612Z" fill="#2E3A59"/>
<path opacity="0.12" d="M12.4711 34.1892C12.1985 33.8702 12.0388 33.3762 12.0388 32.7485V32.9029C12.0388 33.5409 12.1985 34.0348 12.4711 34.3435L12.5369 34.2715L12.4711 34.1892Z" fill="#2E3A59"/>
<path opacity="0.12" d="M32.7428 22.849L28.053 25.7611L28.1376 25.8538L32.7334 22.993C33.3913 22.5814 33.7202 22.0463 33.7202 21.5112C33.6732 21.9949 33.3443 22.4785 32.7428 22.849Z" fill="#2E3A59"/>
<path opacity="0.25" d="M14.4162 8.77188L32.7428 20.1736C33.3349 20.544 33.6732 21.0174 33.7296 21.5113C33.7296 20.9762 33.4007 20.4309 32.7428 20.0295L14.4162 8.62782C13.1004 7.81488 12.029 8.49404 12.029 10.1405V10.2949C12.029 8.63811 13.1098 7.95895 14.4162 8.77188Z" fill="white"/>
<defs>
<linearGradient id="paint0_linear_1_539" x1="23.1468" y1="9.89288" x2="5.94785" y2="25.6008" gradientUnits="userSpaceOnUse">
<stop stop-color="#00A0FF"/>
<stop offset="0.00657445" stop-color="#00A1FF"/>
<stop offset="0.2601" stop-color="#00BEFF"/>
<stop offset="0.5122" stop-color="#00D2FF"/>
<stop offset="0.7604" stop-color="#00DFFF"/>
<stop offset="1" stop-color="#00E3FF"/>
</linearGradient>
<linearGradient id="paint1_linear_1_539" x1="34.4573" y1="21.5126" x2="11.7165" y2="21.5126" gradientUnits="userSpaceOnUse">
<stop stop-color="#FFE000"/>
<stop offset="0.4087" stop-color="#FFBD00"/>
<stop offset="0.7754" stop-color="#FFA500"/>
<stop offset="1" stop-color="#FF9C00"/>
</linearGradient>
<linearGradient id="paint2_linear_1_539" x1="25.9922" y1="23.874" x2="2.66909" y2="45.1752" gradientUnits="userSpaceOnUse">
<stop stop-color="#FF3A44"/>
<stop offset="1" stop-color="#C31162"/>
</linearGradient>
<linearGradient id="paint3_linear_1_539" x1="9.51747" y1="1.11165" x2="19.9323" y2="10.6235" gradientUnits="userSpaceOnUse">
<stop stop-color="#32A071"/>
<stop offset="0.0685" stop-color="#2DA771"/>
<stop offset="0.4762" stop-color="#15CF74"/>
<stop offset="0.8009" stop-color="#06E775"/>
<stop offset="1" stop-color="#00F076"/>
</linearGradient>
</defs>
</svg>
