<svg width="24" height="24" viewBox="0 0 24 24" fill="none" xmlns="http://www.w3.org/2000/svg">
<path d="M12 2C8.1332 2 5 4.78799 5 8.2414C5 14.2126 12 22 12 22C12 22 19 14.2114 19 8.2414C19 4.78924 15.8668 2 12 2ZM12 11.6948C10.9975 11.6948 10.036 11.339 9.32714 10.7057C8.61825 10.0723 8.22 9.21336 8.22 8.3177C8.22 7.42203 8.61825 6.56305 9.32714 5.92972C10.036 5.29639 10.9975 4.94059 12 4.94059C13.0025 4.94059 13.964 5.29639 14.6729 5.92972C15.3818 6.56305 15.78 7.42203 15.78 8.3177C15.78 9.21336 15.3818 10.0723 14.6729 10.7057C13.964 11.339 13.0025 11.6948 12 11.6948Z" fill="#00B9B6"/>
</svg>
