<svg width="90" height="14" viewBox="0 0 90 14" fill="none" xmlns="http://www.w3.org/2000/svg">
<path d="M12.8166 5.59676C12.7764 5.46703 12.6694 5.37249 12.5407 5.3529L8.92397 4.80194L7.30648 1.36635C7.24893 1.24404 7.1301 1.16663 7.00001 1.16663C6.8699 1.16663 6.75109 1.24404 6.69351 1.36635L5.07595 4.80194L1.4593 5.3529C1.33058 5.37249 1.2236 5.46703 1.1834 5.59674C1.14318 5.72647 1.17673 5.86886 1.2699 5.96405L3.88687 8.6383L3.26917 12.4144C3.24716 12.5489 3.29989 12.6847 3.40514 12.7649C3.46468 12.8102 3.5352 12.8333 3.60607 12.8333C3.66048 12.8333 3.71508 12.8197 3.76507 12.7921L6.99999 11.0093L10.2348 12.7921C10.3499 12.8556 10.4895 12.845 10.5947 12.7649C10.7 12.6847 10.7527 12.5488 10.7307 12.4144L10.1128 8.6383L12.7301 5.96402C12.8232 5.86886 12.8568 5.72647 12.8166 5.59676Z" fill="#FFA800"/>
<path d="M31.8166 5.59676C31.7764 5.46703 31.6694 5.37249 31.5407 5.3529L27.924 4.80194L26.3065 1.36635C26.2489 1.24404 26.1301 1.16663 26 1.16663C25.8699 1.16663 25.7511 1.24404 25.6935 1.36635L24.076 4.80194L20.4593 5.3529C20.3306 5.37249 20.2236 5.46703 20.1834 5.59674C20.1432 5.72647 20.1767 5.86886 20.2699 5.96405L22.8869 8.6383L22.2692 12.4144C22.2472 12.5489 22.2999 12.6847 22.4051 12.7649C22.4647 12.8102 22.5352 12.8333 22.6061 12.8333C22.6605 12.8333 22.7151 12.8197 22.7651 12.7921L26 11.0093L29.2348 12.7921C29.3499 12.8556 29.4895 12.845 29.5947 12.7649C29.7 12.6847 29.7527 12.5488 29.7307 12.4144L29.1128 8.6383L31.7301 5.96402C31.8232 5.86886 31.8568 5.72647 31.8166 5.59676Z" fill="#FFA800"/>
<path d="M50.8166 5.59676C50.7764 5.46703 50.6694 5.37249 50.5407 5.3529L46.924 4.80194L45.3065 1.36635C45.2489 1.24404 45.1301 1.16663 45 1.16663C44.8699 1.16663 44.7511 1.24404 44.6935 1.36635L43.076 4.80194L39.4593 5.3529C39.3306 5.37249 39.2236 5.46703 39.1834 5.59674C39.1432 5.72647 39.1767 5.86886 39.2699 5.96405L41.8869 8.6383L41.2692 12.4144C41.2472 12.5489 41.2999 12.6847 41.4051 12.7649C41.4647 12.8102 41.5352 12.8333 41.6061 12.8333C41.6605 12.8333 41.7151 12.8197 41.7651 12.7921L45 11.0093L48.2348 12.7921C48.3499 12.8556 48.4895 12.845 48.5947 12.7649C48.7 12.6847 48.7527 12.5488 48.7307 12.4144L48.1128 8.6383L50.7301 5.96402C50.8232 5.86886 50.8568 5.72647 50.8166 5.59676Z" fill="#FFA800"/>
<path d="M69.8166 5.59676C69.7764 5.46703 69.6694 5.37249 69.5407 5.3529L65.924 4.80194L64.3065 1.36635C64.2489 1.24404 64.1301 1.16663 64 1.16663C63.8699 1.16663 63.7511 1.24404 63.6935 1.36635L62.076 4.80194L58.4593 5.3529C58.3306 5.37249 58.2236 5.46703 58.1834 5.59674C58.1432 5.72647 58.1767 5.86886 58.2699 5.96405L60.8869 8.6383L60.2692 12.4144C60.2472 12.5489 60.2999 12.6847 60.4051 12.7649C60.4647 12.8102 60.5352 12.8333 60.6061 12.8333C60.6605 12.8333 60.7151 12.8197 60.7651 12.7921L64 11.0093L67.2348 12.7921C67.3499 12.8556 67.4895 12.845 67.5947 12.7649C67.7 12.6847 67.7527 12.5488 67.7307 12.4144L67.1128 8.6383L69.7301 5.96402C69.8232 5.86886 69.8568 5.72647 69.8166 5.59676Z" fill="#FFA800"/>
<path d="M88.8166 5.59676C88.7764 5.46703 88.6694 5.37249 88.5407 5.3529L84.924 4.80194L83.3065 1.36635C83.2489 1.24404 83.1301 1.16663 83 1.16663C82.8699 1.16663 82.7511 1.24404 82.6935 1.36635L81.076 4.80194L77.4593 5.3529C77.3306 5.37249 77.2236 5.46703 77.1834 5.59674C77.1432 5.72647 77.1767 5.86886 77.2699 5.96405L79.8869 8.6383L79.2692 12.4144C79.2472 12.5489 79.2999 12.6847 79.4051 12.7649C79.4647 12.8102 79.5352 12.8333 79.6061 12.8333C79.6605 12.8333 79.7151 12.8197 79.7651 12.7921L83 11.0093L86.2348 12.7921C86.3499 12.8556 86.4895 12.845 86.5947 12.7649C86.7 12.6847 86.7527 12.5488 86.7307 12.4144L86.1128 8.6383L88.7301 5.96402C88.8232 5.86886 88.8568 5.72647 88.8166 5.59676Z" fill="#FFA800"/>
</svg>
